<?xml version="1.0" encoding="UTF-8" standalone="no"?>
<!-- Generator: Adobe Illustrator 18.1.1, SVG Export Plug-In . SVG Version: 6.00 Build 0)  -->

<svg
   xmlns:dc="http://purl.org/dc/elements/1.1/"
   xmlns:cc="http://creativecommons.org/ns#"
   xmlns:rdf="http://www.w3.org/1999/02/22-rdf-syntax-ns#"
   xmlns:svg="http://www.w3.org/2000/svg"
   xmlns="http://www.w3.org/2000/svg"
   xmlns:sodipodi="http://sodipodi.sourceforge.net/DTD/sodipodi-0.dtd"
   xmlns:inkscape="http://www.inkscape.org/namespaces/inkscape"
   version="1.1"
   id="Capa_1"
   x="0px"
   y="0px"
   viewBox="0 0 50.688 50.688"
   style="enable-background:new 0 0 50.688 50.688;"
   xml:space="preserve"
   width="512px"
   height="512px"
   inkscape:version="0.91 r13725"
   sodipodi:docname="bubbles.svg"><metadata
     id="metadata53"><rdf:RDF><cc:Work
         rdf:about=""><dc:format>image/svg+xml</dc:format><dc:type
           rdf:resource="http://purl.org/dc/dcmitype/StillImage" /></cc:Work></rdf:RDF></metadata><defs
     id="defs51" /><sodipodi:namedview
     pagecolor="#ffffff"
     bordercolor="#666666"
     borderopacity="1"
     objecttolerance="10"
     gridtolerance="10"
     guidetolerance="10"
     inkscape:pageopacity="0"
     inkscape:pageshadow="2"
     inkscape:window-width="1280"
     inkscape:window-height="771"
     id="namedview49"
     showgrid="false"
     inkscape:zoom="0.4609375"
     inkscape:cx="-72.677966"
     inkscape:cy="256"
     inkscape:window-x="0"
     inkscape:window-y="0"
     inkscape:window-maximized="1"
     inkscape:current-layer="Capa_1" /><g
     id="g3"
     style="fill:#5599ff"><g
       id="g5"
       style="fill:#5599ff"><path
         d="M28.125,28.003c3.906,0,7.084-3.179,7.084-7.085c0-3.339-2.32-6.181-5.506-6.905    C28.569,7.209,22.657,2,15.535,2C7.604,2,1.154,8.451,1.154,16.381s6.451,14.382,14.381,14.382c3.598,0,6.883-1.338,9.408-3.529    C25.927,27.73,27.01,28.003,28.125,28.003z M33.209,20.918c0,2.804-2.28,5.085-5.084,5.085c-0.574,0-1.134-0.106-1.668-0.292    c2.15-2.515,3.458-5.77,3.458-9.33c0-0.071-0.01-0.14-0.011-0.21C31.847,16.898,33.209,18.756,33.209,20.918z M3.154,16.381    C3.154,9.554,8.708,4,15.535,4s12.381,5.554,12.381,12.381s-5.554,12.382-12.381,12.382S3.154,23.208,3.154,16.381z"
         fill="#91DC5A"
         id="path7"
         style="fill:#5599ff" /><path
         d="M45.035,0c-2.481,0-4.5,2.019-4.5,4.5s2.019,4.5,4.5,4.5s4.5-2.019,4.5-4.5S47.515,0,45.035,0z     M45.035,7c-1.379,0-2.5-1.122-2.5-2.5s1.121-2.5,2.5-2.5s2.5,1.122,2.5,2.5S46.414,7,45.035,7z"
         fill="#91DC5A"
         id="path9"
         style="fill:#5599ff" /><path
         d="M37.201,32.117c-5.12,0-9.286,4.166-9.286,9.286s4.166,9.285,9.286,9.285s9.286-4.165,9.286-9.285    S42.322,32.117,37.201,32.117z M37.201,48.688c-4.018,0-7.286-3.269-7.286-7.285c0-4.018,3.269-7.286,7.286-7.286    s7.286,3.269,7.286,7.286S41.22,48.688,37.201,48.688z"
         fill="#91DC5A"
         id="path11"
         style="fill:#5599ff" /><path
         d="M8.003,7.989c-2.917,1.768-3.544,5.769-3.57,5.938c-0.041,0.273,0.147,0.527,0.42,0.568    c0.025,0.004,0.05,0.006,0.075,0.006c0.243,0,0.457-0.178,0.494-0.426c0.005-0.037,0.587-3.709,3.099-5.23    C8.758,8.702,8.834,8.394,8.69,8.158C8.547,7.922,8.24,7.848,8.003,7.989z"
         fill="#91DC5A"
         id="path13"
         style="fill:#5599ff" /><path
         d="M33.822,36.339c-2.241,1.051-2.526,4.868-2.537,5.03c-0.019,0.275,0.189,0.514,0.465,0.533    c0.012,0,0.023,0.001,0.035,0.001c0.26,0,0.479-0.202,0.498-0.466c0.065-0.94,0.546-3.528,1.963-4.192    c0.25-0.117,0.358-0.415,0.241-0.665C34.369,36.329,34.07,36.222,33.822,36.339z"
         fill="#91DC5A"
         id="path15"
         style="fill:#5599ff" /><path
         d="M44.811,2.51c-1.233,0.246-1.605,2.028-1.644,2.23c-0.052,0.271,0.127,0.533,0.398,0.584    c0.031,0.006,0.062,0.009,0.094,0.009c0.235,0,0.445-0.167,0.49-0.407c0.078-0.412,0.402-1.345,0.856-1.436    c0.271-0.054,0.446-0.317,0.393-0.588C45.346,2.63,45.076,2.456,44.811,2.51z"
         fill="#91DC5A"
         id="path17"
         style="fill:#5599ff" /></g></g><g
     id="g19" /><g
     id="g21" /><g
     id="g23" /><g
     id="g25" /><g
     id="g27" /><g
     id="g29" /><g
     id="g31" /><g
     id="g33" /><g
     id="g35" /><g
     id="g37" /><g
     id="g39" /><g
     id="g41" /><g
     id="g43" /><g
     id="g45" /><g
     id="g47" /></svg>