<?xml version="1.0" encoding="UTF-8" standalone="no"?>
<!-- Generator: Adobe Illustrator 16.0.0, SVG Export Plug-In . SVG Version: 6.00 Build 0)  -->

<svg
   xmlns:dc="http://purl.org/dc/elements/1.1/"
   xmlns:cc="http://creativecommons.org/ns#"
   xmlns:rdf="http://www.w3.org/1999/02/22-rdf-syntax-ns#"
   xmlns:svg="http://www.w3.org/2000/svg"
   xmlns="http://www.w3.org/2000/svg"
   xmlns:sodipodi="http://sodipodi.sourceforge.net/DTD/sodipodi-0.dtd"
   xmlns:inkscape="http://www.inkscape.org/namespaces/inkscape"
   version="1.1"
   id="Capa_1"
   x="0px"
   y="0px"
   width="952.427px"
   height="952.427px"
   viewBox="0 0 952.427 952.427"
   style="enable-background:new 0 0 952.427 952.427;"
   xml:space="preserve"
   inkscape:version="0.91 r13725"
   sodipodi:docname="half-time-work.svg"><metadata
     id="metadata51"><rdf:RDF><cc:Work
         rdf:about=""><dc:format>image/svg+xml</dc:format><dc:type
           rdf:resource="http://purl.org/dc/dcmitype/StillImage" /></cc:Work></rdf:RDF></metadata><defs
     id="defs49" /><sodipodi:namedview
     pagecolor="#ffffff"
     bordercolor="#666666"
     borderopacity="1"
     objecttolerance="10"
     gridtolerance="10"
     guidetolerance="10"
     inkscape:pageopacity="0"
     inkscape:pageshadow="2"
     inkscape:window-width="1280"
     inkscape:window-height="776"
     id="namedview47"
     showgrid="false"
     inkscape:zoom="0.24778802"
     inkscape:cx="476.2135"
     inkscape:cy="476.2135"
     inkscape:window-x="0"
     inkscape:window-y="0"
     inkscape:window-maximized="1"
     inkscape:current-layer="Capa_1" /><circle
     id="circle4191"
     r="476.98175"
     cy="482.26706"
     cx="474.19568"
     style="fill:#ff7101;fill-opacity:1" /><g
     id="g3"
     transform="matrix(0.70320255,0,0,0.70320255,139.32113,147.39251)"
     style="fill:#ffffff"><g
       id="g5"
       style="fill:#ffffff"><g
         id="g7"
         style="fill:#ffffff"><path
           d="m 772.527,0 c -91.68,0 -166.001,74.321 -166.001,166.002 0,91.68 74.321,166.002 166.001,166.002 91.68,0 166.002,-74.321 166.002,-166.002 C 938.529,74.322 864.207,0 772.527,0 Z m 0,288.003 c -67.379,0 -122.001,-54.622 -122.001,-122.002 l 122.001,0 0,-122.001 c 67.38,0 122.002,54.622 122.002,122.002 0,67.38 -54.622,122.001 -122.002,122.001 z"
           id="path9"
           inkscape:connector-curvature="0"
           style="fill:#ffffff" /><path
           d="m 401.259,190.894 c -39.275,6.747 -128.838,24.62 -184.564,35.864 -27.751,5.599 -47.703,29.986 -47.703,58.297 l 0,76.946 c 0,73.717 60.107,133.477 133.824,133.477 73.717,0 133.13,-59.929 133.13,-133.646 0,-3.232 0,-141.704 0,-141.704 0,-18.392 -16.562,-32.348 -34.687,-29.234 z"
           id="path11"
           inkscape:connector-curvature="0"
           style="fill:#ffffff" /><path
           d="m 62.079,932.427 c 0,11.046 8.954,20 20,20 l 723.538,0 c 11.046,0 20,-8.954 20,-20 l 0,-161.128 -763.538,0 0,161.128 0,0 z"
           id="path13"
           inkscape:connector-curvature="0"
           style="fill:#ffffff" /><path
           d="m 43.898,740.287 18.182,0 763.538,0 18.184,0 c 16.566,0 30,-13.432 30,-30 l 0,-24.675 c 0,-16.567 -13.434,-30 -30,-30 l -88.195,0 0,-15.506 0,-15.506 0,-5.346 100.29,0 c 16.568,0 30,-13.432 30,-30 l 0,-164.388 c 0,-16.568 -13.432,-30 -30,-30 l -278.59,0 c -16.569,0 -30,13.432 -30,30 l 0,164.391 c 0,16.568 13.431,30 30,30 l 100.29,0 0,5.347 0,15.506 0,15.507 -155.285,0 0,-15.507 0,-15.506 0,-37.512 c 0,-32.846 -26.627,-59.473 -59.474,-59.473 l -53.808,0 c -10.504,0 -19.627,7.229 -22.029,17.455 l -18.674,79.526 -3.641,15.507 -3.642,15.507 -27.471,0 -4.017,-15.507 -4.018,-15.507 -12.576,-48.543 15.62,-34.472 c 2.966,-6.545 -1.819,-13.968 -9.006,-13.968 l -33.525,0 c -7.186,0 -11.972,7.423 -9.006,13.968 l 15.62,34.472 -13.053,48.543 -4.169,15.507 -4.169,15.507 -26.69,0 -3.641,-15.507 -3.641,-15.507 -18.674,-79.526 c -2.401,-10.228 -11.524,-17.455 -22.029,-17.455 l -53.809,0 c -32.846,0 -59.473,26.627 -59.473,59.473 l 0,37.511 0,15.507 0,15.506 -39.419,0 c -16.569,0 -30,13.433 -30,30 l 0,24.675 c 0,16.564 13.431,29.996 30,29.996 z"
           id="path15"
           inkscape:connector-curvature="0"
           style="fill:#ffffff" /></g></g></g><g
     id="g17" /><g
     id="g19" /><g
     id="g21" /><g
     id="g23" /><g
     id="g25" /><g
     id="g27" /><g
     id="g29" /><g
     id="g31" /><g
     id="g33" /><g
     id="g35" /><g
     id="g37" /><g
     id="g39" /><g
     id="g41" /><g
     id="g43" /><g
     id="g45" /></svg>