<?xml version="1.0" encoding="UTF-8" standalone="no"?>
<!-- Generator: Adobe Illustrator 19.0.0, SVG Export Plug-In . SVG Version: 6.00 Build 0)  -->

<svg
   xmlns:dc="http://purl.org/dc/elements/1.1/"
   xmlns:cc="http://creativecommons.org/ns#"
   xmlns:rdf="http://www.w3.org/1999/02/22-rdf-syntax-ns#"
   xmlns:svg="http://www.w3.org/2000/svg"
   xmlns="http://www.w3.org/2000/svg"
   xmlns:sodipodi="http://sodipodi.sourceforge.net/DTD/sodipodi-0.dtd"
   xmlns:inkscape="http://www.inkscape.org/namespaces/inkscape"
   version="1.1"
   id="Layer_1"
   x="0px"
   y="0px"
   viewBox="0 0 455 455"
   style="enable-background:new 0 0 455 455;"
   xml:space="preserve"
   inkscape:version="0.91 r13725"
   sodipodi:docname="skills.svg"><metadata
     id="metadata53"><rdf:RDF><cc:Work
         rdf:about=""><dc:format>image/svg+xml</dc:format><dc:type
           rdf:resource="http://purl.org/dc/dcmitype/StillImage" /></cc:Work></rdf:RDF></metadata><defs
     id="defs51" /><sodipodi:namedview
     pagecolor="#ffffff"
     bordercolor="#666666"
     borderopacity="1"
     objecttolerance="10"
     gridtolerance="10"
     guidetolerance="10"
     inkscape:pageopacity="0"
     inkscape:pageshadow="2"
     inkscape:window-width="1280"
     inkscape:window-height="776"
     id="namedview49"
     showgrid="false"
     inkscape:zoom="0.51868132"
     inkscape:cx="227.5"
     inkscape:cy="227.5"
     inkscape:window-x="0"
     inkscape:window-y="0"
     inkscape:window-maximized="1"
     inkscape:current-layer="Layer_1" /><circle
     id="circle4221"
     r="227.93645"
     cy="229.42798"
     cx="227.5"
     style="fill:#2e7d32;fill-opacity:1" /><g
     id="g3"
     transform="matrix(0.66949153,0,0,0.66949153,75.190676,77.118655)"
     style="fill:#ffffff"><circle
       cx="97.869003"
       cy="56.027"
       r="35.493999"
       id="circle5"
       style="fill:#ffffff" /><polygon
       points="43.549,455 152.19,455 152.19,289.573 170.788,289.573 170.788,121.03 112.869,121.03 112.869,229.573 82.869,229.573 82.869,121.03 24.951,121.03 24.951,289.573 43.549,289.573 "
       id="polygon7"
       style="fill:#ffffff" /><circle
       cx="395.147"
       cy="34.901001"
       r="34.901001"
       id="circle9"
       style="fill:#ffffff" /><circle
       cx="395.147"
       cy="420.09799"
       r="34.902"
       id="circle11"
       style="fill:#ffffff" /><circle
       cx="395.147"
       cy="291.69901"
       r="34.902"
       id="circle13"
       style="fill:#ffffff" /><circle
       cx="395.147"
       cy="163.3"
       r="34.901001"
       id="circle15"
       style="fill:#ffffff" /><polygon
       points="330.246,405.098 290.517,405.098 290.517,306.699 330.246,306.699 330.246,276.699 290.517,276.699 290.517,178.301 330.246,178.301 330.246,148.301 290.517,148.301 290.517,49.902 330.246,49.902 330.246,19.902 260.517,19.902 260.517,212.5 220.787,212.5 220.787,242.5 260.517,242.5 260.517,435.098 330.246,435.098 "
       id="polygon17"
       style="fill:#ffffff" /></g><g
     id="g19" /><g
     id="g21" /><g
     id="g23" /><g
     id="g25" /><g
     id="g27" /><g
     id="g29" /><g
     id="g31" /><g
     id="g33" /><g
     id="g35" /><g
     id="g37" /><g
     id="g39" /><g
     id="g41" /><g
     id="g43" /><g
     id="g45" /><g
     id="g47" /></svg>