<?xml version="1.0" encoding="UTF-8" standalone="no"?>
<!-- Generator: Adobe Illustrator 19.0.0, SVG Export Plug-In . SVG Version: 6.00 Build 0)  -->

<svg
   xmlns:dc="http://purl.org/dc/elements/1.1/"
   xmlns:cc="http://creativecommons.org/ns#"
   xmlns:rdf="http://www.w3.org/1999/02/22-rdf-syntax-ns#"
   xmlns:svg="http://www.w3.org/2000/svg"
   xmlns="http://www.w3.org/2000/svg"
   xmlns:sodipodi="http://sodipodi.sourceforge.net/DTD/sodipodi-0.dtd"
   xmlns:inkscape="http://www.inkscape.org/namespaces/inkscape"
   version="1.1"
   id="Capa_1"
   x="0px"
   y="0px"
   viewBox="0 0 58 58"
   xml:space="preserve"
   sodipodi:docname="smartphone.svg"
   style="enable-background:new 0 0 58 58;"
   inkscape:version="0.92.1 r"><metadata
     id="metadata65"><rdf:RDF><cc:Work
         rdf:about=""><dc:format>image/svg+xml</dc:format><dc:type
           rdf:resource="http://purl.org/dc/dcmitype/StillImage" /><dc:title></dc:title></cc:Work></rdf:RDF></metadata><defs
     id="defs63" /><sodipodi:namedview
     pagecolor="#ffffff"
     bordercolor="#666666"
     borderopacity="1"
     objecttolerance="10"
     gridtolerance="10"
     guidetolerance="10"
     inkscape:pageopacity="0"
     inkscape:pageshadow="2"
     inkscape:window-width="1280"
     inkscape:window-height="773"
     id="namedview61"
     showgrid="false"
     inkscape:zoom="4.0689655"
     inkscape:cx="34.529661"
     inkscape:cy="68.322034"
     inkscape:window-x="0"
     inkscape:window-y="0"
     inkscape:window-maximized="1"
     inkscape:current-layer="Capa_1" /><g
     id="g96"><path
       id="path2"
       d="M41.595,58H16.405C14.525,58,13,56.475,13,54.595V3.405C13,1.525,14.525,0,16.405,0h25.189  C43.475,0,45,1.525,45,3.405v51.189C45,56.475,43.475,58,41.595,58z"
       style="fill:#424A60;" /><rect
       id="rect4"
       height="40"
       width="32"
       style="fill:#E7ECED;"
       y="6"
       x="13" /><circle
       id="circle6"
       r="3"
       cy="52"
       cx="29"
       style="fill:#262B35;" /><path
       id="path8"
       d="M29,4h-4c-0.553,0-1-0.447-1-1s0.447-1,1-1h4c0.553,0,1,0.447,1,1S29.553,4,29,4z"
       style="fill:#262B35;" /><path
       id="path10"
       d="M33,4h-1c-0.553,0-1-0.447-1-1s0.447-1,1-1h1c0.553,0,1,0.447,1,1S33.553,4,33,4z"
       style="fill:#262B35;" /><path
       id="path12"
       d="M30.962,17.019h-3.924c-0.573,0-1.038-0.465-1.038-1.038v-3.924c0-0.573,0.465-1.038,1.038-1.038  h3.924c0.573,0,1.038,0.465,1.038,1.038v3.924C32,16.554,31.535,17.019,30.962,17.019z"
       style="fill:#3083C9;" /><path
       id="path14"
       d="M21.962,17.019h-3.924c-0.573,0-1.038-0.465-1.038-1.038v-3.924c0-0.573,0.465-1.038,1.038-1.038  h3.924c0.573,0,1.038,0.465,1.038,1.038v3.924C23,16.554,22.535,17.019,21.962,17.019z"
       style="fill:#88C057;" /><path
       id="path16"
       d="M39.962,17.019h-3.924c-0.573,0-1.038-0.465-1.038-1.038v-3.924c0-0.573,0.465-1.038,1.038-1.038  h3.924c0.573,0,1.038,0.465,1.038,1.038v3.924C41,16.554,40.535,17.019,39.962,17.019z"
       style="fill:#DC691D;" /><path
       id="path18"
       d="M30.962,26h-3.924C26.465,26,26,25.535,26,24.962v-3.924C26,20.465,26.465,20,27.038,20h3.924  C31.535,20,32,20.465,32,21.038v3.924C32,25.535,31.535,26,30.962,26z"
       style="fill:#EBBA16;" /><path
       id="path20"
       d="M21.962,26h-3.924C17.465,26,17,25.535,17,24.962v-3.924C17,20.465,17.465,20,18.038,20h3.924  C22.535,20,23,20.465,23,21.038v3.924C23,25.535,22.535,26,21.962,26z"
       style="fill:#7383BF;" /><path
       id="path22"
       d="M39.962,26h-3.924C35.465,26,35,25.535,35,24.962v-3.924C35,20.465,35.465,20,36.038,20h3.924  C40.535,20,41,20.465,41,21.038v3.924C41,25.535,40.535,26,39.962,26z"
       style="fill:#DD352E;" /><path
       id="path24"
       d="M30.962,35h-3.924C26.465,35,26,34.535,26,33.962v-3.924C26,29.465,26.465,29,27.038,29h3.924  C31.535,29,32,29.465,32,30.038v3.924C32,34.535,31.535,35,30.962,35z"
       style="fill:#A485BE;" /><path
       id="path26"
       d="M21.962,35h-3.924C17.465,35,17,34.535,17,33.962v-3.924C17,29.465,17.465,29,18.038,29h3.924  C22.535,29,23,29.465,23,30.038v3.924C23,34.535,22.535,35,21.962,35z"
       style="fill:#EA6248;" /><path
       id="path28"
       d="M39.962,35h-3.924C35.465,35,35,34.535,35,33.962v-3.924C35,29.465,35.465,29,36.038,29h3.924  C40.535,29,41,29.465,41,30.038v3.924C41,34.535,40.535,35,39.962,35z"
       style="fill:#25AE88;" /><g
       id="g30" /><g
       id="g32" /><g
       id="g34" /><g
       id="g36" /><g
       id="g38" /><g
       id="g40" /><g
       id="g42" /><g
       id="g44" /><g
       id="g46" /><g
       id="g48" /><g
       id="g50" /><g
       id="g52" /><g
       id="g54" /><g
       id="g56" /><g
       id="g58" /></g></svg>