<svg height="512" viewBox="0 0 64 64" width="512" xmlns="http://www.w3.org/2000/svg"><g id="Admin"><path d="m8.858 33h5.142v-2h-5.142a4 4 0 1 0 0 2zm-3.858 1a2 2 0 1 1 2-2 2 2 0 0 1 -2 2z"/><path d="m59 28a4 4 0 0 0 -3.858 3h-5.142v2h5.142a3.993 3.993 0 1 0 3.858-5zm0 6a2 2 0 1 1 2-2 2 2 0 0 1 -2 2z"/><path d="m40.52 8.105h2v1.81h-2z" transform="matrix(.388 -.921 .921 .388 17.09 43.77)"/><path d="m37.184 6.698h2v1.811h-2z" transform="matrix(.389 -.921 .921 .389 16.341 39.832)"/><path d="m43.856 9.511h2v1.81h-2z" transform="matrix(.388 -.921 .921 .388 17.834 47.704)"/><path d="m55.491 37.184h1.81v2h-1.81z" transform="matrix(.389 -.921 .921 .389 -.705 75.305)"/><path d="m54.085 40.52h1.81v2h-1.81z" transform="matrix(.389 -.921 .921 .389 -4.639 76.049)"/><path d="m52.678 43.856h1.811v2h-1.811z" transform="matrix(.389 -.921 .921 .389 -8.572 76.792)"/><path d="m21.48 54.085h2v1.81h-2z" transform="matrix(.388 -.921 .921 .388 -36.924 54.344)"/><path d="m24.816 55.491h2v1.81h-2z" transform="matrix(.388 -.921 .921 .388 -36.18 58.279)"/><path d="m18.144 52.678h2v1.811h-2z" transform="matrix(.389 -.921 .921 .389 -37.668 50.402)"/><path d="m6.698 24.816h1.811v2h-1.811z" transform="matrix(.389 -.921 .921 .389 -19.138 22.788)"/><path d="m8.105 21.48h1.81v2h-1.81z" transform="matrix(.389 -.921 .921 .389 -15.205 22.044)"/><path d="m9.511 18.144h1.81v2h-1.81z" transform="matrix(.389 -.921 .921 .389 -11.271 21.301)"/><path d="m6.603 37.278h2v1.811h-2z" transform="matrix(.921 -.389 .389 .921 -14.243 5.957)"/><path d="m9.416 43.951h2v1.81h-2z" transform="matrix(.921 -.389 .389 .921 -16.615 7.575)"/><path d="m8.01 40.615h2v1.81h-2z" transform="matrix(.921 -.389 .389 .921 -15.429 6.766)"/><path d="m40.615 53.99h1.81v2h-1.81z" transform="matrix(.921 -.389 .389 .921 -18.109 20.461)"/><path d="m37.278 55.397h1.811v2h-1.811z" transform="matrix(.921 -.389 .389 .921 -18.918 19.275)"/><path d="m43.951 52.583h1.81v2h-1.81z" transform="matrix(.921 -.389 .389 .921 -17.299 21.647)"/><path d="m53.99 21.575h2v1.81h-2z" transform="matrix(.921 -.389 .389 .921 -4.414 23.14)"/><path d="m55.396 24.911h2v1.81h-2z" transform="matrix(.921 -.389 .389 .921 -5.6 23.949)"/><path d="m52.583 18.238h2v1.811h-2z" transform="matrix(.921 -.389 .389 .921 -3.228 22.326)"/><path d="m18.238 9.416h1.81v2h-1.81z" transform="matrix(.921 -.389 .389 .921 -2.543 8.259)"/><path d="m21.575 8.01h1.81v2h-1.81z" transform="matrix(.921 -.389 .389 .921 -1.734 9.446)"/><path d="m24.911 6.604h1.81v2h-1.81z" transform="matrix(.921 -.389 .389 .921 -.926 10.632)"/><path d="m44.021 18.565 1.414 1.414 3.546-3.546a3.947 3.947 0 0 0 2.019.567 4 4 0 1 0 -4-4 3.947 3.947 0 0 0 .567 2.019zm6.979-7.565a2 2 0 1 1 -2 2 2 2 0 0 1 2-2z"/><path d="m13 17a3.947 3.947 0 0 0 2.019-.567l3.546 3.546 1.414-1.414-3.546-3.546a3.947 3.947 0 0 0 .567-2.019 4 4 0 1 0 -4 4zm0-6a2 2 0 1 1 -2 2 2 2 0 0 1 2-2z"/><path d="m51 47a3.947 3.947 0 0 0 -2.019.567l-3.365-3.367a13.97 13.97 0 0 0 .384-3.2 1 1 0 0 0 -1-1h-5.667l-3.333-2.5v-2.764a7 7 0 0 0 2.92-4.736h1.08a2 2 0 0 0 2-2v-1a2 2 0 0 0 -2-2h-1v-1.278a7 7 0 0 0 3-5.722v-4a1 1 0 0 0 -1-1h-8v-4.142a4 4 0 1 0 -2 0v4.142h-2a7.008 7.008 0 0 0 -7 7v2a3 3 0 0 0 3 3h-1a2 2 0 0 0 -2 2v1a2 2 0 0 0 2 2h1.08a7 7 0 0 0 2.92 4.736v2.764l-3.333 2.5h-5.667a1 1 0 0 0 -1 1 13.97 13.97 0 0 0 .384 3.2l-3.365 3.365a3.947 3.947 0 0 0 -2.019-.565 4 4 0 1 0 4 4 3.947 3.947 0 0 0 -.567-2.019l2.633-2.633a14.019 14.019 0 0 0 11.934 8.601v.193a4 4 0 1 0 2 0v-.193a14.019 14.019 0 0 0 11.934-8.6l2.633 2.633a3.947 3.947 0 0 0 -.567 2.018 4 4 0 1 0 4-4zm-26-19h-1v-1h1zm-12 25a2 2 0 1 1 2-2 2 2 0 0 1 -2 2zm27-26v1h-1v-1zm-10-22a2 2 0 1 1 2 2 2 2 0 0 1 -2-2zm-4.447 17.105a1 1 0 0 0 -.553.895 1 1 0 0 1 -1-1v-2a5.006 5.006 0 0 1 5-5h11v3a5 5 0 0 1 -1.977 3.975l-2.879-.725a1 1 0 0 0 -1.222.76 2.78 2.78 0 0 1 -.654 1.309 3.317 3.317 0 0 1 -1.746.926 5.077 5.077 0 0 0 .42-.91 6.321 6.321 0 0 0 .047-2.482 1 1 0 0 0 -.989-.853h-1a1 1 0 0 0 -.447.105zm1.447 6.895v-5.382l3.09-1.545a2.3 2.3 0 0 1 -.035.6 3.83 3.83 0 0 1 -.6 1.063 1.579 1.579 0 0 0 -.341 1.737 1.672 1.672 0 0 0 1.368.808 5.334 5.334 0 0 0 4.253-1.606 4.7 4.7 0 0 0 .818-1.257l1.447.362v5.22a5 5 0 0 1 -10 0zm2.6 9.8a1 1 0 0 0 .4-.8v-2.3a6.927 6.927 0 0 0 4 0v2.3a1 1 0 0 0 .4.8l2.783 2.087-5.183 2.961-5.183-2.961zm1.9 7.068a1 1 0 0 0 .992 0l4.965-2.837-1.238 4.969h-8.438l-1.242-4.969zm2.5 13.132a2 2 0 1 1 -2-2 2 2 0 0 1 2 2zm-2-6a12.016 12.016 0 0 1 -11.958-11h4.177l1.811 7.243a1 1 0 0 0 .97.757h10a1 1 0 0 0 .97-.757l1.811-7.243h4.177a12.016 12.016 0 0 1 -11.958 11zm19 0a2 2 0 1 1 2-2 2 2 0 0 1 -2 2z"/></g></svg>