<?xml version="1.0" encoding="UTF-8" standalone="no"?>
<!-- Generator: Adobe Illustrator 19.0.0, SVG Export Plug-In . SVG Version: 6.00 Build 0)  -->

<svg
   xmlns:dc="http://purl.org/dc/elements/1.1/"
   xmlns:cc="http://creativecommons.org/ns#"
   xmlns:rdf="http://www.w3.org/1999/02/22-rdf-syntax-ns#"
   xmlns:svg="http://www.w3.org/2000/svg"
   xmlns="http://www.w3.org/2000/svg"
   xmlns:sodipodi="http://sodipodi.sourceforge.net/DTD/sodipodi-0.dtd"
   xmlns:inkscape="http://www.inkscape.org/namespaces/inkscape"
   version="1.1"
   id="Layer_1"
   x="0px"
   y="0px"
   viewBox="0 0 56 56"
   xml:space="preserve"
   inkscape:version="0.91 r13725"
   sodipodi:docname="contacts.svg"
   width="56"
   height="56"><metadata
     id="metadata43"><rdf:RDF><cc:Work
         rdf:about=""><dc:format>image/svg+xml</dc:format><dc:type
           rdf:resource="http://purl.org/dc/dcmitype/StillImage" /><dc:title></dc:title></cc:Work></rdf:RDF></metadata><defs
     id="defs41" /><sodipodi:namedview
     pagecolor="#ffffff"
     bordercolor="#666666"
     borderopacity="1"
     objecttolerance="10"
     gridtolerance="10"
     guidetolerance="10"
     inkscape:pageopacity="0"
     inkscape:pageshadow="2"
     inkscape:window-width="1280"
     inkscape:window-height="776"
     id="namedview39"
     showgrid="false"
     inkscape:zoom="5.8682092"
     inkscape:cx="29.247741"
     inkscape:cy="30.802832"
     inkscape:window-x="0"
     inkscape:window-y="0"
     inkscape:window-maximized="1"
     inkscape:current-layer="Layer_1" /><g
     id="g3"
     transform="matrix(0.12307692,0,0,0.12307692,0,2.07e-6)"
     style="fill:#ececec"><path
       d="M 315,157.5 C 315,70.515 244.485,0 157.5,0 70.515,0 0,70.515 0,157.5 c 0,32.92 10.106,63.476 27.376,88.749 L 6.689,308.311 68.752,287.624 C 94.024,304.894 124.58,315 157.5,315 244.485,315 315,244.485 315,157.5 Z"
       id="path5"
       inkscape:connector-curvature="0"
       style="fill:#ececec" /><path
       d="M 455,297.5 C 455,226.967 408.63,167.276 344.716,147.216 344.9,150.63 345,154.058 345,157.5 c 0,25.299 -4.962,49.857 -14.747,72.992 -9.445,22.331 -22.961,42.38 -40.171,59.59 -17.21,17.21 -37.259,30.725 -59.59,40.17 C 207.357,340.039 182.799,345 157.5,345 c -3.443,0 -6.871,-0.114 -10.288,-0.299 C 167.267,408.623 226.961,455 297.5,455 c 32.92,0 63.476,-10.106 88.749,-27.376 l 62.063,20.687 -20.688,-62.062 C 444.894,360.977 455,330.42 455,297.5 Z"
       id="path7"
       inkscape:connector-curvature="0"
       style="fill:#ececec" /></g><g
     id="g9"
     transform="translate(0,-399)" /><g
     id="g11"
     transform="translate(0,-399)" /><g
     id="g13"
     transform="translate(0,-399)" /><g
     id="g15"
     transform="translate(0,-399)" /><g
     id="g17"
     transform="translate(0,-399)" /><g
     id="g19"
     transform="translate(0,-399)" /><g
     id="g21"
     transform="translate(0,-399)" /><g
     id="g23"
     transform="translate(0,-399)" /><g
     id="g25"
     transform="translate(0,-399)" /><g
     id="g27"
     transform="translate(0,-399)" /><g
     id="g29"
     transform="translate(0,-399)" /><g
     id="g31"
     transform="translate(0,-399)" /><g
     id="g33"
     transform="translate(0,-399)" /><g
     id="g35"
     transform="translate(0,-399)" /><g
     id="g37"
     transform="translate(0,-399)" /></svg>