<?xml version="1.0" encoding="UTF-8" standalone="no"?>
<!-- Generator: Adobe Illustrator 16.0.0, SVG Export Plug-In . SVG Version: 6.00 Build 0)  -->

<svg
   xmlns:dc="http://purl.org/dc/elements/1.1/"
   xmlns:cc="http://creativecommons.org/ns#"
   xmlns:rdf="http://www.w3.org/1999/02/22-rdf-syntax-ns#"
   xmlns:svg="http://www.w3.org/2000/svg"
   xmlns="http://www.w3.org/2000/svg"
   xmlns:sodipodi="http://sodipodi.sourceforge.net/DTD/sodipodi-0.dtd"
   xmlns:inkscape="http://www.inkscape.org/namespaces/inkscape"
   version="1.1"
   id="Capa_1"
   x="0px"
   y="0px"
   width="28"
   height="28"
   viewBox="0 0 28 28"
   xml:space="preserve"
   sodipodi:docname="envelope.svg"
   inkscape:version="0.92.1 r"><metadata
     id="metadata45"><rdf:RDF><cc:Work
         rdf:about=""><dc:format>image/svg+xml</dc:format><dc:type
           rdf:resource="http://purl.org/dc/dcmitype/StillImage" /><dc:title></dc:title></cc:Work></rdf:RDF></metadata><defs
     id="defs43" /><sodipodi:namedview
     pagecolor="#ffffff"
     bordercolor="#666666"
     borderopacity="1"
     objecttolerance="10"
     gridtolerance="10"
     guidetolerance="10"
     inkscape:pageopacity="0"
     inkscape:pageshadow="2"
     inkscape:window-width="1280"
     inkscape:window-height="773"
     id="namedview41"
     showgrid="false"
     inkscape:zoom="7.380391"
     inkscape:cx="40.018076"
     inkscape:cy="17.906474"
     inkscape:window-x="0"
     inkscape:window-y="0"
     inkscape:window-maximized="1"
     inkscape:current-layer="Capa_1" /><g
     id="g8"
     transform="matrix(0.05022526,0,0,0.06392364,1.0839534,-2.4203402)"
     style="fill:#ffffff"><g
       id="g6"
       style="fill:#ffffff"><path
         d="m 49.106,178.729 c 6.472,4.567 25.981,18.131 58.528,40.685 32.548,22.554 57.482,39.92 74.803,52.099 1.903,1.335 5.946,4.237 12.131,8.71 6.186,4.476 11.326,8.093 15.416,10.852 4.093,2.758 9.041,5.852 14.849,9.277 5.806,3.422 11.279,5.996 16.418,7.7 5.14,1.718 9.898,2.569 14.275,2.569 h 0.287 0.288 c 4.377,0 9.137,-0.852 14.277,-2.569 5.137,-1.704 10.615,-4.281 16.416,-7.7 5.804,-3.429 10.752,-6.52 14.845,-9.277 4.093,-2.759 9.229,-6.376 15.417,-10.852 6.184,-4.477 10.232,-7.375 12.135,-8.71 17.508,-12.179 62.051,-43.11 133.615,-92.79 13.894,-9.703 25.502,-21.411 34.827,-35.116 9.332,-13.699 13.993,-28.07 13.993,-43.105 0,-12.564 -4.523,-23.319 -13.565,-32.264 C 489.02,59.291 478.312,54.82 465.944,54.82 H 45.679 C 31.024,54.82 19.746,59.768 11.847,69.664 3.949,79.562 0,91.934 0,106.779 c 0,11.991 5.236,24.985 15.703,38.974 10.466,13.99 21.604,24.983 33.403,32.976 z"
         id="path2"
         inkscape:connector-curvature="0"
         style="fill:#ffffff" /><path
         d="m 483.072,209.275 c -62.424,42.251 -109.824,75.087 -142.177,98.501 -10.849,7.991 -19.65,14.229 -26.409,18.699 -6.759,4.473 -15.748,9.041 -26.98,13.702 -11.228,4.668 -21.692,6.995 -31.401,6.995 h -0.291 -0.287 c -9.707,0 -20.177,-2.327 -31.405,-6.995 -11.228,-4.661 -20.223,-9.229 -26.98,-13.702 -6.755,-4.47 -15.559,-10.708 -26.407,-18.699 C 145.038,288.934 97.74,256.096 28.839,209.275 17.987,202.047 8.375,193.762 0,184.437 v 226.685 c 0,12.57 4.471,23.319 13.418,32.265 8.945,8.949 19.701,13.422 32.264,13.422 h 420.266 c 12.56,0 23.315,-4.473 32.261,-13.422 8.949,-8.949 13.418,-19.694 13.418,-32.265 V 184.437 c -8.186,9.132 -17.7,17.417 -28.555,24.838 z"
         id="path4"
         inkscape:connector-curvature="0"
         style="fill:#ffffff" /></g></g><g
     id="g10"
     transform="translate(0,-483.62601)" /><g
     id="g12"
     transform="translate(0,-483.62601)" /><g
     id="g14"
     transform="translate(0,-483.62601)" /><g
     id="g16"
     transform="translate(0,-483.62601)" /><g
     id="g18"
     transform="translate(0,-483.62601)" /><g
     id="g20"
     transform="translate(0,-483.62601)" /><g
     id="g22"
     transform="translate(0,-483.62601)" /><g
     id="g24"
     transform="translate(0,-483.62601)" /><g
     id="g26"
     transform="translate(0,-483.62601)" /><g
     id="g28"
     transform="translate(0,-483.62601)" /><g
     id="g30"
     transform="translate(0,-483.62601)" /><g
     id="g32"
     transform="translate(0,-483.62601)" /><g
     id="g34"
     transform="translate(0,-483.62601)" /><g
     id="g36"
     transform="translate(0,-483.62601)" /><g
     id="g38"
     transform="translate(0,-483.62601)" /></svg>