<?xml version="1.0" encoding="UTF-8" standalone="no"?>
<!-- Generator: Adobe Illustrator 19.0.0, SVG Export Plug-In . SVG Version: 6.00 Build 0)  -->

<svg
   xmlns:dc="http://purl.org/dc/elements/1.1/"
   xmlns:cc="http://creativecommons.org/ns#"
   xmlns:rdf="http://www.w3.org/1999/02/22-rdf-syntax-ns#"
   xmlns:svg="http://www.w3.org/2000/svg"
   xmlns="http://www.w3.org/2000/svg"
   xmlns:sodipodi="http://sodipodi.sourceforge.net/DTD/sodipodi-0.dtd"
   xmlns:inkscape="http://www.inkscape.org/namespaces/inkscape"
   version="1.1"
   id="Layer_1"
   x="0px"
   y="0px"
   viewBox="0 0 28 28"
   xml:space="preserve"
   sodipodi:docname="facebook.svg"
   width="28"
   height="28"
   inkscape:version="0.92.1 r"><metadata
     id="metadata39"><rdf:RDF><cc:Work
         rdf:about=""><dc:format>image/svg+xml</dc:format><dc:type
           rdf:resource="http://purl.org/dc/dcmitype/StillImage" /><dc:title></dc:title></cc:Work></rdf:RDF></metadata><defs
     id="defs37" /><sodipodi:namedview
     pagecolor="#ffffff"
     bordercolor="#666666"
     borderopacity="1"
     objecttolerance="10"
     gridtolerance="10"
     guidetolerance="10"
     inkscape:pageopacity="0"
     inkscape:pageshadow="2"
     inkscape:window-width="1280"
     inkscape:window-height="773"
     id="namedview35"
     showgrid="false"
     inkscape:zoom="6.5315891"
     inkscape:cx="48.857254"
     inkscape:cy="21.755488"
     inkscape:window-x="0"
     inkscape:window-y="0"
     inkscape:window-maximized="1"
     inkscape:current-layer="Layer_1" /><path
     style="fill:#ffffff;stroke-width:0.06250296"
     d="M 23.332133,1.3779189 H 4.6678051 c -1.9014721,0 -3.4429883,1.5414424 -3.4429883,3.442963 V 23.485197 c 0,1.90152 1.5414537,3.442963 3.4429883,3.442963 h 9.2051579 l 0.01569,-9.130274 h -2.372059 c -0.308266,0 -0.558466,-0.249261 -0.559653,-0.557524 l -0.01138,-2.943067 c -0.0012,-0.30995 0.249762,-0.561837 0.559715,-0.561837 h 2.367746 v -2.843749 c 0,-3.3001436 2.015541,-5.0970971 4.959504,-5.0970971 h 2.415748 c 0.309078,0 0.559716,0.2505734 0.559716,0.5597119 v 2.4816084 c 0,0.3090131 -0.25045,0.5595241 -0.559404,0.5597121 l -1.482513,6.87e-4 c -1.601019,0 -1.911035,0.7607837 -1.911035,1.8772697 v 2.46192 h 3.517992 c 0.335205,0 0.59528,0.292701 0.555778,0.62559 l -0.34883,2.943066 c -0.03338,0.281638 -0.272201,0.493834 -0.555778,0.493834 h -3.153468 l -0.01569,9.130274 h 5.477218 c 1.901472,0 3.442925,-1.541443 3.442925,-3.4429 V 4.8208819 c -6.2e-5,-1.9015206 -1.541516,-3.442963 -3.44305,-3.442963 z"
     id="path2"
     inkscape:connector-curvature="0" /><g
     id="g4"
     transform="translate(0,-380.78799)" /><g
     id="g6"
     transform="translate(0,-380.78799)" /><g
     id="g8"
     transform="translate(0,-380.78799)" /><g
     id="g10"
     transform="translate(0,-380.78799)" /><g
     id="g12"
     transform="translate(0,-380.78799)" /><g
     id="g14"
     transform="translate(0,-380.78799)" /><g
     id="g16"
     transform="translate(0,-380.78799)" /><g
     id="g18"
     transform="translate(0,-380.78799)" /><g
     id="g20"
     transform="translate(0,-380.78799)" /><g
     id="g22"
     transform="translate(0,-380.78799)" /><g
     id="g24"
     transform="translate(0,-380.78799)" /><g
     id="g26"
     transform="translate(0,-380.78799)" /><g
     id="g28"
     transform="translate(0,-380.78799)" /><g
     id="g30"
     transform="translate(0,-380.78799)" /><g
     id="g32"
     transform="translate(0,-380.78799)" /></svg>