<?xml version="1.0" encoding="UTF-8" standalone="no"?>
<!-- Generator: Adobe Illustrator 19.0.0, SVG Export Plug-In . SVG Version: 6.00 Build 0)  -->

<svg
   xmlns:dc="http://purl.org/dc/elements/1.1/"
   xmlns:cc="http://creativecommons.org/ns#"
   xmlns:rdf="http://www.w3.org/1999/02/22-rdf-syntax-ns#"
   xmlns:svg="http://www.w3.org/2000/svg"
   xmlns="http://www.w3.org/2000/svg"
   xmlns:sodipodi="http://sodipodi.sourceforge.net/DTD/sodipodi-0.dtd"
   xmlns:inkscape="http://www.inkscape.org/namespaces/inkscape"
   version="1.1"
   id="Layer_1"
   x="0px"
   y="0px"
   viewBox="0 0 27.999999 27.999999"
   xml:space="preserve"
   sodipodi:docname="github.svg"
   width="28"
   height="28"
   inkscape:version="0.92.1 r"><metadata
     id="metadata41"><rdf:RDF><cc:Work
         rdf:about=""><dc:format>image/svg+xml</dc:format><dc:type
           rdf:resource="http://purl.org/dc/dcmitype/StillImage" /><dc:title></dc:title></cc:Work></rdf:RDF></metadata><defs
     id="defs39" /><sodipodi:namedview
     pagecolor="#ffffff"
     bordercolor="#666666"
     borderopacity="1"
     objecttolerance="10"
     gridtolerance="10"
     guidetolerance="10"
     inkscape:pageopacity="0"
     inkscape:pageshadow="2"
     inkscape:window-width="1280"
     inkscape:window-height="773"
     id="namedview37"
     showgrid="false"
     inkscape:zoom="3.2404228"
     inkscape:cx="69.82674"
     inkscape:cy="9.245582"
     inkscape:window-x="0"
     inkscape:window-y="0"
     inkscape:window-maximized="1"
     inkscape:current-layer="Layer_1" /><g
     id="g4"
     transform="matrix(0.09611424,0,0,0.09611424,0,-7.3242188e-6)"
     style="fill:#ffffff"><path
       style="fill:#ffffff"
       d="M 145.66,0 C 65.219,0 0,65.219 0,145.66 c 0,80.45 65.219,145.66 145.66,145.66 80.441,0 145.66,-65.21 145.66,-145.66 C 291.319,65.219 226.1,0 145.66,0 Z m 40.802,256.625 c -0.838,-11.398 -1.775,-25.518 -1.83,-31.235 -0.364,-4.388 -0.838,-15.549 -11.434,-22.677 42.068,-3.523 62.087,-26.774 63.526,-57.499 1.202,-17.497 -5.754,-32.883 -18.107,-45.3 0.628,-13.282 -0.401,-29.023 -1.256,-35.941 -9.486,-2.731 -31.608,8.949 -37.79,13.947 -13.037,-5.062 -44.945,-6.837 -64.336,0 C 101.488,68.252 85.839,62.28 77.309,63.946 69.434,81.398 74.496,97.894 76.034,99.86 c -10.142,9.268 -24.289,20.675 -20.447,44.572 6.163,35.04 30.816,53.94 70.508,58.564 -8.466,1.73 -9.896,8.048 -10.606,10.788 -26.656,10.997 -34.275,-6.791 -37.644,-11.425 -11.188,-13.847 -21.23,-9.832 -21.849,-9.614 -0.601,0.218 -1.056,1.092 -0.992,1.511 0.564,2.986 6.655,6.018 6.955,6.263 8.257,6.154 11.316,17.27 13.2,20.438 11.844,19.473 39.374,11.398 39.638,11.562 0.018,1.702 -0.191,16.032 -0.355,27.184 C 64.245,245.992 27.311,200.2 27.311,145.66 c 0,-65.365 52.984,-118.348 118.348,-118.348 65.364,0 118.349,52.983 118.349,118.348 0,51.008 -32.318,94.332 -77.546,110.965 z"
       id="path2"
       inkscape:connector-curvature="0" /></g><g
     id="g6"
     transform="translate(0,-263.32001)" /><g
     id="g8"
     transform="translate(0,-263.32001)" /><g
     id="g10"
     transform="translate(0,-263.32001)" /><g
     id="g12"
     transform="translate(0,-263.32001)" /><g
     id="g14"
     transform="translate(0,-263.32001)" /><g
     id="g16"
     transform="translate(0,-263.32001)" /><g
     id="g18"
     transform="translate(0,-263.32001)" /><g
     id="g20"
     transform="translate(0,-263.32001)" /><g
     id="g22"
     transform="translate(0,-263.32001)" /><g
     id="g24"
     transform="translate(0,-263.32001)" /><g
     id="g26"
     transform="translate(0,-263.32001)" /><g
     id="g28"
     transform="translate(0,-263.32001)" /><g
     id="g30"
     transform="translate(0,-263.32001)" /><g
     id="g32"
     transform="translate(0,-263.32001)" /><g
     id="g34"
     transform="translate(0,-263.32001)" /></svg>