<?xml version="1.0" encoding="UTF-8" standalone="no"?>
<!-- Generator: Adobe Illustrator 19.0.0, SVG Export Plug-In . SVG Version: 6.00 Build 0)  -->

<svg
   xmlns:dc="http://purl.org/dc/elements/1.1/"
   xmlns:cc="http://creativecommons.org/ns#"
   xmlns:rdf="http://www.w3.org/1999/02/22-rdf-syntax-ns#"
   xmlns:svg="http://www.w3.org/2000/svg"
   xmlns="http://www.w3.org/2000/svg"
   xmlns:sodipodi="http://sodipodi.sourceforge.net/DTD/sodipodi-0.dtd"
   xmlns:inkscape="http://www.inkscape.org/namespaces/inkscape"
   version="1.1"
   id="Layer_1"
   x="0px"
   y="0px"
   viewBox="0 0 28 28"
   xml:space="preserve"
   sodipodi:docname="mobile-phone.svg"
   width="28"
   height="28"
   inkscape:version="0.92.1 r"><metadata
     id="metadata41"><rdf:RDF><cc:Work
         rdf:about=""><dc:format>image/svg+xml</dc:format><dc:type
           rdf:resource="http://purl.org/dc/dcmitype/StillImage" /><dc:title></dc:title></cc:Work></rdf:RDF></metadata><defs
     id="defs39" /><sodipodi:namedview
     pagecolor="#ffffff"
     bordercolor="#666666"
     borderopacity="1"
     objecttolerance="10"
     gridtolerance="10"
     guidetolerance="10"
     inkscape:pageopacity="0"
     inkscape:pageshadow="2"
     inkscape:window-width="1280"
     inkscape:window-height="773"
     id="namedview37"
     showgrid="false"
     inkscape:zoom="10.429825"
     inkscape:cx="9.3865304"
     inkscape:cy="14.499509"
     inkscape:window-x="0"
     inkscape:window-y="0"
     inkscape:window-maximized="1"
     inkscape:current-layer="Layer_1" /><path
     style="fill:#ffffff;stroke-width:0.05000591"
     d="m 1.2464255,14.04794 c 0,7.070085 5.7314273,12.801512 12.8015635,12.801512 2.675666,0 5.159309,-0.821397 7.213452,-2.225113 l 5.044396,1.681499 -1.681448,-5.044446 c 1.403665,-2.054143 2.225062,-4.537686 2.225062,-7.213452 0,-7.0700865 -5.731427,-12.8015135 -12.801462,-12.8015135 -7.0701362,0 -12.8015635,5.731427 -12.8015635,12.8015135 z"
     id="path2"
     inkscape:connector-curvature="0" /><path
     style="fill:#d34836;stroke-width:0.05000591;fill-opacity:1"
     d="m 20.035846,17.875842 c -0.966414,-0.966364 -2.001536,-1.77991 -2.001536,-1.77991 l -1.508079,1.508128 -6.034363,-6.034413 1.508128,-1.508079 c 0,0 -0.813496,-1.035122 -1.77991,-2.0015362 C 9.2536718,7.0936676 8.2185995,6.2801215 8.2185995,6.2801215 c 0,0 -1.8070636,1.6623964 -1.9285779,2.9808523 -0.1626192,1.7648582 1.7055015,4.9735382 4.6384484,7.9064842 2.932946,2.932947 6.141576,4.801068 7.906434,4.638398 1.318506,-0.121564 2.980853,-1.928528 2.980853,-1.928528 0,0 -0.813547,-1.035022 -1.779911,-2.001486 z"
     id="path4"
     inkscape:connector-curvature="0" /><g
     id="g6"
     transform="translate(0,-484)" /><g
     id="g8"
     transform="translate(0,-484)" /><g
     id="g10"
     transform="translate(0,-484)" /><g
     id="g12"
     transform="translate(0,-484)" /><g
     id="g14"
     transform="translate(0,-484)" /><g
     id="g16"
     transform="translate(0,-484)" /><g
     id="g18"
     transform="translate(0,-484)" /><g
     id="g20"
     transform="translate(0,-484)" /><g
     id="g22"
     transform="translate(0,-484)" /><g
     id="g24"
     transform="translate(0,-484)" /><g
     id="g26"
     transform="translate(0,-484)" /><g
     id="g28"
     transform="translate(0,-484)" /><g
     id="g30"
     transform="translate(0,-484)" /><g
     id="g32"
     transform="translate(0,-484)" /><g
     id="g34"
     transform="translate(0,-484)" /></svg>