<svg id="Layer_3" enable-background="new 0 0 64 64" height="512" viewBox="0 0 64 64" width="512" xmlns="http://www.w3.org/2000/svg"><path d="m32 23c-9.374 0-17 7.626-17 17s7.626 17 17 17 17-7.626 17-17-7.626-17-17-17zm-4 31.442v-5.442h-2v4.739c-.697-.306-1.363-.668-2-1.072v-2.667c0-1.993 1.18-3.703 2.871-4.506l2.329 3.106c.174.232.44.377.729.397.288.026.573-.085.778-.29l1.293-1.293 1.293 1.293c.188.189.443.293.707.293.023 0 .047-.001.071-.003.289-.021.555-.165.729-.397l2.329-3.106c1.691.803 2.871 2.513 2.871 4.506v2.666c-.637.404-1.303.767-2 1.072v-4.738h-2v5.442c-1.276.354-2.613.558-4 .558s-2.724-.204-4-.558zm-2-15.442h-1c-.551 0-1-.448-1-1s.449-1 1-1h1zm12-2h1c.551 0 1 .448 1 1s-.449 1-1 1h-1zm0-2.171c-1.164-.413-2-1.525-2-2.829 0-.552-.448-1-1-1s-1 .448-1 1c0 1.391-3.026 3-5 3h-3v-3c0-1.654 1.346-3 3-3h6c1.654 0 3 1.346 3 3zm-10 2.171h1c1.612 0 4.21-.876 5.747-2.374.329.531.755.996 1.253 1.371v3.003c0 2.206-1.794 4-4 4s-4-1.794-4-4zm4 8h3l-1.109 1.478-1.185-1.185c-.194-.195-.45-.293-.706-.293s-.512.098-.707.293l-1.185 1.185-1.108-1.478zm10 6.149v-1.149c0-3.401-2.44-6.241-5.66-6.868.576-.605 1.025-1.329 1.31-2.132h1.35c1.654 0 3-1.346 3-3 0-1.302-.839-2.402-2-2.816v-3.184c0-2.757-2.243-5-5-5h-6c-2.757 0-5 2.243-5 5v3.184c-1.161.414-2 1.514-2 2.816 0 1.654 1.346 3 3 3h1.35c.285.803.734 1.527 1.31 2.132-3.22.627-5.66 3.467-5.66 6.868v1.149c-3.061-2.748-5-6.721-5-11.149 0-8.271 6.729-15 15-15s15 6.729 15 15c0 4.428-1.939 8.401-5 11.149z"/><path d="m54 35h-1.601c-.485-1.979-1.264-3.878-2.323-5.663l1.63-1.63c.391-.391.391-1.023 0-1.414l-6-6c-.391-.391-1.023-.391-1.414 0l-1.63 1.63c-1.784-1.059-3.683-1.837-5.663-2.323v-1.6c0-.552-.448-1-1-1h-8c-.552 0-1 .448-1 1v1.601c-1.979.485-3.878 1.264-5.663 2.323l-1.63-1.63c-.391-.391-1.023-.391-1.414 0l-6 6c-.391.391-.391 1.023 0 1.414l1.63 1.63c-1.059 1.784-1.837 3.683-2.323 5.663h-1.599c-.552 0-1 .447-1 1v8c0 .553.448 1 1 1h1.601c.486 1.979 1.264 3.879 2.322 5.663l-1.63 1.63c-.188.186-.293.44-.293.706s.105.52.293.707l6 6c.391.391 1.023.391 1.414 0l1.63-1.63c1.785 1.059 3.683 1.837 5.663 2.322v1.601c0 .553.448 1 1 1h8c.552 0 1-.447 1-1v-1.601c1.979-.485 3.878-1.264 5.663-2.322l1.63 1.63c.391.391 1.023.391 1.414 0l6-6c.188-.187.293-.441.293-.707s-.105-.52-.293-.707l-1.63-1.63c1.058-1.784 1.836-3.684 2.322-5.663h1.601c.552 0 1-.447 1-1v-8c0-.553-.448-1-1-1zm-1 8h-1.401c-.476 0-.885.335-.98.801-.464 2.285-1.355 4.461-2.649 6.468-.255.396-.2.916.133 1.249l1.483 1.482-4.586 4.586-1.483-1.482c-.333-.334-.853-.387-1.249-.134-2.007 1.294-4.183 2.186-6.467 2.648-.466.095-.801.505-.801.981v1.401h-6v-1.401c0-.476-.335-.886-.801-.98-2.284-.463-4.459-1.354-6.467-2.648-.397-.253-.917-.2-1.249.134l-1.483 1.481-4.586-4.586 1.483-1.482c.333-.333.389-.853.133-1.249-1.293-2.007-2.185-4.183-2.649-6.468-.094-.466-.504-.801-.98-.801h-1.401v-6h1.401c.476 0 .885-.335.98-.801.464-2.284 1.355-4.46 2.649-6.467.255-.396.2-.916-.133-1.249l-1.483-1.483 4.586-4.586 1.483 1.483c.333.333.852.389 1.249.133 2.007-1.293 4.183-2.185 6.467-2.649.466-.094.801-.504.801-.98v-1.401h6v1.401c0 .476.335.885.801.98 2.284.464 4.46 1.355 6.467 2.649.396.255.917.2 1.249-.133l1.483-1.483 4.586 4.586-1.483 1.483c-.333.333-.389.853-.133 1.249 1.293 2.007 2.185 4.183 2.649 6.467.094.466.504.801.98.801h1.401z"/><path d="m12 7h-2v2h-2v-2h-2v2h-2v2h2v3h2v-3h2v3h2v-3h2v-2h-2z"/><path d="m59 15.92c2.449-1.42 4-4.07 4-6.92 0-4.411-3.589-8-8-8-4.072 0-7.436 3.06-7.931 7h-4.069c-.379 0-.725.214-.895.553l-1.105 2.211-1.105-2.211c-.17-.339-.516-.553-.895-.553h-3.341l-2.74-6.394c-.156-.364-.512-.602-.908-.606-.363.029-.757.226-.921.586l-4.001 8.802-2.152-5.739c-.128-.342-.433-.587-.794-.639-.367-.053-.724.097-.943.39l-2.7 3.6h-3.569c-.495-3.94-3.859-7-7.931-7-4.411 0-8 3.589-8 8 0 2.85 1.551 5.5 4 6.92v.08h-2v2h2v2c0 .552.448 1 1 1h2v2h2v-2h2c.552 0 1-.448 1-1v-2h2v-2h-2v-.08c2.16-1.253 3.617-3.462 3.932-5.92h4.068c.315 0 .611-.148.8-.4l1.905-2.54 2.359 6.291c.142.379.499.635.903.648.396.017.777-.218.944-.586l4.063-8.938 2.108 4.918c.156.369.518.607.918.607h3.382l1.724 3.447c.169.339.515.553.894.553s.725-.214.895-.553l1.723-3.447h3.449c.315 2.458 1.773 4.667 3.932 5.92v.08h-2v2h2v2c0 .552.448 1 1 1h2v2h2v-2h2c.552 0 1-.448 1-1v-2h2v-2h-2v-.08zm-48 3.08h-4v-1h4zm.57-4.585c-.348.165-.57.517-.57.902v.683h-4v-.683c0-.386-.222-.737-.57-.903-2.084-.991-3.43-3.117-3.43-5.414 0-3.309 2.691-6 6-6s6 2.691 6 6c0 2.297-1.346 4.423-3.43 5.415zm40.86 0c-2.084-.992-3.43-3.118-3.43-5.415 0-3.309 2.691-6 6-6s6 2.691 6 6c0 2.297-1.346 4.423-3.43 5.415-.348.165-.57.517-.57.902v.683h-4v-.683c0-.385-.222-.737-.57-.902zm4.57 4.585h-4v-1h4z"/><path d="m54 11h2v3h2v-3h2v-2h-2v-2h-2v2h-2v-2h-2v2h-2v2h2v3h2z"/></svg>