<?xml version="1.0" encoding="UTF-8" standalone="no"?>
<svg
   xmlns:dc="http://purl.org/dc/elements/1.1/"
   xmlns:cc="http://creativecommons.org/ns#"
   xmlns:rdf="http://www.w3.org/1999/02/22-rdf-syntax-ns#"
   xmlns:svg="http://www.w3.org/2000/svg"
   xmlns="http://www.w3.org/2000/svg"
   xmlns:sodipodi="http://sodipodi.sourceforge.net/DTD/sodipodi-0.dtd"
   xmlns:inkscape="http://www.inkscape.org/namespaces/inkscape"
   id="Layer_1"
   viewBox="36 653.3 316.1 150"
   version="1.1"
   sodipodi:docname="typescript.svg"
   inkscape:version="0.92.1 r"
   width="316.10001"
   height="150">
  <metadata
     id="metadata13">
    <rdf:RDF>
      <cc:Work
         rdf:about="">
        <dc:format>image/svg+xml</dc:format>
        <dc:type
           rdf:resource="http://purl.org/dc/dcmitype/StillImage" />
        <dc:title></dc:title>
      </cc:Work>
    </rdf:RDF>
  </metadata>
  <defs
     id="defs11" />
  <sodipodi:namedview
     pagecolor="#ffffff"
     bordercolor="#666666"
     borderopacity="1"
     objecttolerance="10"
     gridtolerance="10"
     guidetolerance="10"
     inkscape:pageopacity="0"
     inkscape:pageshadow="2"
     inkscape:window-width="1280"
     inkscape:window-height="773"
     id="namedview9"
     showgrid="false"
     inkscape:zoom="0.94273962"
     inkscape:cx="158.05"
     inkscape:cy="38.450001"
     inkscape:window-x="0"
     inkscape:window-y="0"
     inkscape:window-maximized="1"
     inkscape:current-layer="Layer_1" />
  <style
     id="style2">.st0{fill:#fff}</style>
  <path
     class="st0"
     d="M 75.4,702.63859 H 59 v 50.8 h -6.7 v -50.8 H 36 v -6 h 39.4 z"
     id="path4"
     style="fill:#0000ff"
     inkscape:connector-curvature="0" />
  <path
     class="st0"
     d="m 106.3,712.83859 -18.7,47.1 c -3.3,8.4 -8,12.6 -14,12.6 -1.7,0 -3.1,-0.2 -4.2,-0.5 v -5.8 c 1.4,0.5 2.7,0.7 3.8,0.7 3.3,0 5.7,-2 7.4,-5.9 l 3.2,-7.7 -15.8,-40.5 h 7.2 l 11,31.2 c 0.1,0.4 0.4,1.4 0.8,3.1 h 0.2 c 0.1,-0.6 0.4,-1.6 0.8,-3 l 11.5,-31.3 z m 10.6,34.7 h -0.2 v 24.5 h -6.5 v -59.2 h 6.5 v 7.1 h 0.2 c 3.2,-5.4 7.9,-8.1 14,-8.1 5.2,0 9.3,1.8 12.2,5.4 2.9,3.6 4.4,8.5 4.4,14.6 0,6.8 -1.7,12.2 -5,16.3 -3.3,4.1 -7.8,6.1 -13.5,6.1 -5.1,0.2 -9.2,-2.1 -12.1,-6.7 z m -0.1,-16.3 v 5.7 c 0,3.4 1.1,6.2 3.3,8.5 2.2,2.3 4.9,3.5 8.3,3.5 3.9,0 7,-1.5 9.3,-4.5 2.2,-3 3.3,-7.2 3.3,-12.6 0,-4.5 -1,-8.1 -3.1,-10.6 -2.1,-2.6 -4.9,-3.8 -8.5,-3.8 -3.8,0 -6.8,1.3 -9.1,3.9 -2.4,2.6 -3.5,5.9 -3.5,9.9 z m 70.5,3.5 h -28.6 c 0.1,4.5 1.3,8 3.6,10.5 2.3,2.5 5.5,3.7 9.6,3.7 4.6,0 8.8,-1.5 12.6,-4.5 v 6.1 c -3.6,2.6 -8.3,3.9 -14.1,3.9 -5.7,0 -10.2,-1.8 -13.5,-5.5 -3.3,-3.7 -4.9,-8.9 -4.9,-15.5 0,-6.3 1.8,-11.5 5.4,-15.4 3.6,-4 8,-6 13.3,-6 5.3,0 9.4,1.7 12.3,5.2 2.9,3.4 4.4,8.2 4.4,14.3 z m -6.7,-5.5 c 0,-3.8 -0.9,-6.7 -2.7,-8.8 -1.8,-2.1 -4.3,-3.1 -7.4,-3.1 -3.1,0 -5.7,1.1 -7.8,3.3 -2.1,2.2 -3.5,5.1 -4,8.6 z m 9.9,22.2 v -4.5 c 4.1,2.6 8.2,3.9 12.4,3.9 4.4,0 7.8,-0.9 10.1,-2.8 2.3,-1.9 3.4,-4.4 3.4,-7.7 0,-2.9 -0.8,-5.2 -2.3,-7 -1.5,-1.7 -4.9,-4.1 -10,-7.1 -5.8,-3.4 -9.4,-6.2 -10.9,-8.4 -1.5,-2.3 -2.3,-4.9 -2.3,-7.8 0,-4 1.6,-7.4 4.7,-10.2 3.1,-2.8 7.3,-4.2 12.5,-4.2 3.4,0 6.8,0.6 10.1,1.7 v 4.1 c -3.3,-1.5 -6.9,-2.3 -10.7,-2.3 -3.9,0 -6.9,1 -9.2,2.9 -2.3,2 -3.4,4.4 -3.4,7.4 0,2.9 0.8,5.2 2.3,6.9 1.5,1.7 4.9,4.1 10,7 5.3,3 8.8,5.7 10.6,8 1.8,2.3 2.6,5 2.6,8.1 0,4.4 -1.5,7.9 -4.5,10.7 -3,2.8 -7.3,4.1 -12.8,4.1 -2,0 -4.2,-0.3 -6.8,-0.9 -2.6,-0.6 -4.5,-1.1 -5.8,-1.9 z m 63.7,0.2 c -3,1.8 -6.6,2.8 -10.8,2.8 -5.5,0 -10,-1.9 -13.4,-5.7 -3.4,-3.8 -5.1,-8.7 -5.1,-14.9 0,-6.4 1.9,-11.7 5.7,-15.8 3.8,-4.1 8.7,-6.2 14.7,-6.2 3.1,0 6.1,0.6 9,1.9 v 4.1 c -2.9,-1.8 -6.1,-2.7 -9.5,-2.7 -4.8,0 -8.6,1.7 -11.6,5.1 -3,3.4 -4.4,7.9 -4.4,13.3 0,5.3 1.4,9.5 4.1,12.7 2.7,3.2 6.3,4.8 10.7,4.8 4.1,0 7.6,-1.1 10.6,-3.2 z m 24.2,-35 c -1.2,-0.9 -2.6,-1.3 -4.3,-1.3 -3.2,0 -5.9,1.7 -8,5 -2.2,3.3 -3.2,8 -3.2,14.1 v 19.1 h -3.6 v -40.7 h 3.6 v 9 h 0.2 c 0.9,-3.1 2.4,-5.5 4.4,-7.2 2,-1.7 4.3,-2.6 7,-2.6 1.5,0 2.9,0.2 4,0.7 v 3.9 z m 5.8,-14 c -0.8,0 -1.5,-0.3 -2.1,-0.9 -0.6,-0.6 -0.9,-1.3 -0.9,-2.2 0,-0.9 0.3,-1.6 0.9,-2.1 0.6,-0.5 1.3,-0.8 2.1,-0.8 0.8,0 1.5,0.3 2.2,0.8 0.6,0.5 0.9,1.2 0.9,2.1 0,0.8 -0.3,1.6 -0.9,2.2 -0.7,0.6 -1.4,0.9 -2.2,0.9 z m -1.8,50.8 v -40.6 h 3.6 v 40.6 z m 16.1,-7.2 h -0.2 v 25.9 h -3.6 v -59.3 h 3.6 v 8.4 h 0.2 c 1.5,-3 3.5,-5.3 6.2,-6.9 2.7,-1.6 5.7,-2.4 8.9,-2.4 5.2,0 9.2,1.8 12.1,5.3 2.9,3.6 4.3,8.4 4.3,14.5 0,6.8 -1.7,12.3 -5,16.5 -3.3,4.2 -7.7,6.3 -13.1,6.3 -6,-0.1 -10.5,-2.8 -13.4,-8.3 z m -0.2,-15.1 v 5.1 c 0,4.1 1.3,7.6 3.8,10.5 2.6,2.9 5.9,4.4 10.1,4.4 4.1,0 7.5,-1.8 10.1,-5.3 2.6,-3.6 3.9,-8.2 3.9,-14 0,-5.1 -1.2,-9.1 -3.6,-12.1 -2.4,-3 -5.5,-4.5 -9.5,-4.5 -4.7,0 -8.4,1.6 -11,4.8 -2.6,3.2 -3.8,6.8 -3.8,11.1 z m 53.8,21.7 c -1.9,0.9 -3.7,1.3 -5.3,1.3 -6,0 -9,-3.6 -9,-10.8 v -27.1 h -7.3 v -3.3 h 7.3 v -10.6 l 1.8,-0.6 1.8,-0.6 v 11.8 h 10.7 v 3.3 h -10.7 v 26.8 c 0,2.8 0.4,4.8 1.3,6.1 0.9,1.3 2.4,1.9 4.5,1.9 1.5,0 3.1,-0.5 4.9,-1.5 z"
     id="path6"
     style="fill:#0000ff"
     inkscape:connector-curvature="0" />
</svg>
